<mxfile host="app.diagrams.net" agent="Mozilla/5.0 (Windows NT 10.0; Win64; x64) AppleWebKit/537.36 (KHTML, like Gecko) Chrome/129.0.0.0 Safari/537.36" version="24.7.17">
  <diagram name="Page-1" id="2YBvvXClWsGukQMizWep">
    <mxGraphModel dx="794" dy="446" grid="1" gridSize="10" guides="1" tooltips="1" connect="1" arrows="1" fold="1" page="1" pageScale="1" pageWidth="850" pageHeight="1100" math="0" shadow="0">
      <root>
        <mxCell id="0" />
        <mxCell id="1" parent="0" />
        <mxCell id="vJGRMZoa4p7dji69BdQg-21" value="" style="group" parent="1" vertex="1" connectable="0">
          <mxGeometry x="80" y="55" width="80" height="295" as="geometry" />
        </mxCell>
        <mxCell id="vJGRMZoa4p7dji69BdQg-22" value="" style="shape=umlLifeline;perimeter=lifelinePerimeter;whiteSpace=wrap;html=1;container=1;dropTarget=0;collapsible=0;recursiveResize=0;outlineConnect=0;portConstraint=eastwest;newEdgeStyle={&quot;curved&quot;:0,&quot;rounded&quot;:0};participant=umlActor;" parent="vJGRMZoa4p7dji69BdQg-21" vertex="1">
          <mxGeometry x="26.666666666666664" y="-9.833333333333337" width="26.666666666666664" height="304.8333333333334" as="geometry" />
        </mxCell>
        <mxCell id="vJGRMZoa4p7dji69BdQg-23" value="Student" style="text;html=1;align=center;verticalAlign=middle;resizable=0;points=[];autosize=1;strokeColor=none;fillColor=none;" parent="vJGRMZoa4p7dji69BdQg-21" vertex="1">
          <mxGeometry x="10" y="38.06134408602152" width="60" height="30" as="geometry" />
        </mxCell>
        <mxCell id="vJGRMZoa4p7dji69BdQg-24" value="" style="html=1;points=[[0,0,0,0,5],[0,1,0,0,-5],[1,0,0,0,5],[1,1,0,0,-5]];perimeter=orthogonalPerimeter;outlineConnect=0;targetShapes=umlLifeline;portConstraint=eastwest;newEdgeStyle={&quot;curved&quot;:0,&quot;rounded&quot;:0};fillColor=#bac8d3;strokeColor=#23445d;" parent="vJGRMZoa4p7dji69BdQg-21" vertex="1">
          <mxGeometry x="35" y="85" width="10" height="185" as="geometry" />
        </mxCell>
        <mxCell id="vJGRMZoa4p7dji69BdQg-25" value="&lt;b&gt;&amp;nbsp; &amp;nbsp;Frontend&lt;/b&gt;" style="shape=umlLifeline;perimeter=lifelinePerimeter;whiteSpace=wrap;html=1;container=1;dropTarget=0;collapsible=0;recursiveResize=0;outlineConnect=0;portConstraint=eastwest;newEdgeStyle={&quot;curved&quot;:0,&quot;rounded&quot;:0};participant=umlBoundary;size=70;fillColor=#76608a;fontColor=#ffffff;strokeColor=#432D57;" parent="1" vertex="1">
          <mxGeometry x="240" y="50" width="80" height="300" as="geometry" />
        </mxCell>
        <mxCell id="vJGRMZoa4p7dji69BdQg-26" value="" style="html=1;points=[[0,0,0,0,5],[0,1,0,0,-5],[1,0,0,0,5],[1,1,0,0,-5]];perimeter=orthogonalPerimeter;outlineConnect=0;targetShapes=umlLifeline;portConstraint=eastwest;newEdgeStyle={&quot;curved&quot;:0,&quot;rounded&quot;:0};fillColor=#bac8d3;strokeColor=#23445d;" parent="vJGRMZoa4p7dji69BdQg-25" vertex="1">
          <mxGeometry x="35" y="84" width="10" height="176" as="geometry" />
        </mxCell>
        <mxCell id="vJGRMZoa4p7dji69BdQg-27" value="&lt;b&gt;Response&lt;/b&gt;&lt;div&gt;&lt;b&gt;Controller&lt;/b&gt;&lt;/div&gt;" style="shape=umlLifeline;perimeter=lifelinePerimeter;whiteSpace=wrap;html=1;container=1;dropTarget=0;collapsible=0;recursiveResize=0;outlineConnect=0;portConstraint=eastwest;newEdgeStyle={&quot;curved&quot;:0,&quot;rounded&quot;:0};participant=umlControl;size=70;fillColor=#647687;fontColor=#ffffff;strokeColor=#314354;" parent="1" vertex="1">
          <mxGeometry x="407.5" y="50" width="65" height="300" as="geometry" />
        </mxCell>
        <mxCell id="vJGRMZoa4p7dji69BdQg-28" value="" style="html=1;points=[[0,0,0,0,5],[0,1,0,0,-5],[1,0,0,0,5],[1,1,0,0,-5]];perimeter=orthogonalPerimeter;outlineConnect=0;targetShapes=umlLifeline;portConstraint=eastwest;newEdgeStyle={&quot;curved&quot;:0,&quot;rounded&quot;:0};fillColor=#bac8d3;strokeColor=#23445d;" parent="vJGRMZoa4p7dji69BdQg-27" vertex="1">
          <mxGeometry x="27.5" y="115" width="10" height="120" as="geometry" />
        </mxCell>
        <mxCell id="vJGRMZoa4p7dji69BdQg-29" value="&lt;b&gt;Response&lt;/b&gt;&lt;div&gt;&lt;b&gt;Service&lt;/b&gt;&lt;/div&gt;" style="shape=umlLifeline;perimeter=lifelinePerimeter;whiteSpace=wrap;html=1;container=1;dropTarget=0;collapsible=0;recursiveResize=0;outlineConnect=0;portConstraint=eastwest;newEdgeStyle={&quot;curved&quot;:0,&quot;rounded&quot;:0};participant=umlControl;size=70;fillColor=#647687;fontColor=#ffffff;strokeColor=#314354;" parent="1" vertex="1">
          <mxGeometry x="560" y="50" width="70" height="300" as="geometry" />
        </mxCell>
        <mxCell id="vJGRMZoa4p7dji69BdQg-30" value="" style="html=1;points=[[0,0,0,0,5],[0,1,0,0,-5],[1,0,0,0,5],[1,1,0,0,-5]];perimeter=orthogonalPerimeter;outlineConnect=0;targetShapes=umlLifeline;portConstraint=eastwest;newEdgeStyle={&quot;curved&quot;:0,&quot;rounded&quot;:0};fillColor=#bac8d3;strokeColor=#23445d;" parent="vJGRMZoa4p7dji69BdQg-29" vertex="1">
          <mxGeometry x="30" y="130" width="10" height="90" as="geometry" />
        </mxCell>
        <mxCell id="vJGRMZoa4p7dji69BdQg-31" value="Response Repository" style="shape=umlLifeline;perimeter=lifelinePerimeter;whiteSpace=wrap;html=1;container=1;dropTarget=0;collapsible=0;recursiveResize=0;outlineConnect=0;portConstraint=eastwest;newEdgeStyle={&quot;curved&quot;:0,&quot;rounded&quot;:0};fillColor=#6d8764;fontColor=#ffffff;strokeColor=#3A5431;" parent="1" vertex="1">
          <mxGeometry x="690" y="50" width="100" height="300" as="geometry" />
        </mxCell>
        <mxCell id="vJGRMZoa4p7dji69BdQg-32" value="" style="html=1;points=[[0,0,0,0,5],[0,1,0,0,-5],[1,0,0,0,5],[1,1,0,0,-5]];perimeter=orthogonalPerimeter;outlineConnect=0;targetShapes=umlLifeline;portConstraint=eastwest;newEdgeStyle={&quot;curved&quot;:0,&quot;rounded&quot;:0};fillColor=#bac8d3;strokeColor=#23445d;" parent="vJGRMZoa4p7dji69BdQg-31" vertex="1">
          <mxGeometry x="45" y="140" width="10" height="50" as="geometry" />
        </mxCell>
        <mxCell id="vJGRMZoa4p7dji69BdQg-33" value="View test history and score&amp;nbsp;&lt;div&gt;against an id of that user&lt;/div&gt;" style="html=1;verticalAlign=bottom;endArrow=block;curved=0;rounded=0;" parent="1" target="vJGRMZoa4p7dji69BdQg-25" edge="1">
          <mxGeometry width="80" relative="1" as="geometry">
            <mxPoint x="124.99666666666667" y="169.1683333333333" as="sourcePoint" />
            <mxPoint x="309.5" y="169.1683333333333" as="targetPoint" />
          </mxGeometry>
        </mxCell>
        <mxCell id="vJGRMZoa4p7dji69BdQg-34" value="Retrieve Test History" style="html=1;verticalAlign=bottom;endArrow=block;curved=0;rounded=0;" parent="1" edge="1">
          <mxGeometry width="80" relative="1" as="geometry">
            <mxPoint x="279.5" y="180" as="sourcePoint" />
            <mxPoint x="435" y="180" as="targetPoint" />
          </mxGeometry>
        </mxCell>
        <mxCell id="vJGRMZoa4p7dji69BdQg-35" value="Fetch User Responses" style="html=1;verticalAlign=bottom;endArrow=block;curved=0;rounded=0;entryX=0;entryY=0;entryDx=0;entryDy=5;entryPerimeter=0;" parent="1" source="vJGRMZoa4p7dji69BdQg-28" target="vJGRMZoa4p7dji69BdQg-30" edge="1">
          <mxGeometry width="80" relative="1" as="geometry">
            <mxPoint x="460" y="194" as="sourcePoint" />
            <mxPoint x="579.5" y="194" as="targetPoint" />
          </mxGeometry>
        </mxCell>
        <mxCell id="vJGRMZoa4p7dji69BdQg-36" value="Query Responses by ID" style="html=1;verticalAlign=bottom;endArrow=block;curved=0;rounded=0;" parent="1" source="vJGRMZoa4p7dji69BdQg-29" target="vJGRMZoa4p7dji69BdQg-31" edge="1">
          <mxGeometry width="80" relative="1" as="geometry">
            <mxPoint x="620" y="170" as="sourcePoint" />
            <mxPoint x="700" y="170" as="targetPoint" />
          </mxGeometry>
        </mxCell>
        <mxCell id="vJGRMZoa4p7dji69BdQg-37" value="Return User Responses&amp;nbsp;&lt;div&gt;against ID&lt;/div&gt;" style="html=1;verticalAlign=bottom;endArrow=open;dashed=1;endSize=8;curved=0;rounded=0;exitX=0;exitY=1;exitDx=0;exitDy=-5;exitPerimeter=0;" parent="1" source="vJGRMZoa4p7dji69BdQg-32" target="vJGRMZoa4p7dji69BdQg-29" edge="1">
          <mxGeometry x="-0.0747" y="35" relative="1" as="geometry">
            <mxPoint x="729.5" y="236" as="sourcePoint" />
            <mxPoint x="579.5" y="236" as="targetPoint" />
            <mxPoint as="offset" />
          </mxGeometry>
        </mxCell>
        <mxCell id="vJGRMZoa4p7dji69BdQg-38" value="Return User Responses" style="html=1;verticalAlign=bottom;endArrow=open;dashed=1;endSize=8;curved=0;rounded=0;" parent="1" edge="1">
          <mxGeometry relative="1" as="geometry">
            <mxPoint x="590" y="246" as="sourcePoint" />
            <mxPoint x="439.5" y="246" as="targetPoint" />
          </mxGeometry>
        </mxCell>
        <mxCell id="vJGRMZoa4p7dji69BdQg-39" value="Return User Responses" style="html=1;verticalAlign=bottom;endArrow=open;dashed=1;endSize=8;curved=0;rounded=0;" parent="1" edge="1">
          <mxGeometry relative="1" as="geometry">
            <mxPoint x="439.5" y="257" as="sourcePoint" />
            <mxPoint x="279.5" y="257" as="targetPoint" />
          </mxGeometry>
        </mxCell>
        <mxCell id="vJGRMZoa4p7dji69BdQg-40" value="Display Tests History&amp;nbsp;&lt;div&gt;and Scores&lt;/div&gt;" style="html=1;verticalAlign=bottom;endArrow=open;dashed=1;endSize=8;curved=0;rounded=0;" parent="1" edge="1">
          <mxGeometry relative="1" as="geometry">
            <mxPoint x="275" y="280" as="sourcePoint" />
            <mxPoint x="125" y="280" as="targetPoint" />
          </mxGeometry>
        </mxCell>
        <mxCell id="vJGRMZoa4p7dji69BdQg-41" value="Database" style="shape=umlLifeline;perimeter=lifelinePerimeter;whiteSpace=wrap;html=1;container=1;dropTarget=0;collapsible=0;recursiveResize=0;outlineConnect=0;portConstraint=eastwest;newEdgeStyle={&quot;curved&quot;:0,&quot;rounded&quot;:0};fillColor=#6d8764;fontColor=#ffffff;strokeColor=#3A5431;" parent="1" vertex="1">
          <mxGeometry x="880" y="50" width="100" height="300" as="geometry" />
        </mxCell>
        <mxCell id="vJGRMZoa4p7dji69BdQg-42" value="" style="html=1;points=[[0,0,0,0,5],[0,1,0,0,-5],[1,0,0,0,5],[1,1,0,0,-5]];perimeter=orthogonalPerimeter;outlineConnect=0;targetShapes=umlLifeline;portConstraint=eastwest;newEdgeStyle={&quot;curved&quot;:0,&quot;rounded&quot;:0};fillColor=#bac8d3;strokeColor=#23445d;" parent="vJGRMZoa4p7dji69BdQg-41" vertex="1">
          <mxGeometry x="45" y="140" width="10" height="50" as="geometry" />
        </mxCell>
        <mxCell id="vJGRMZoa4p7dji69BdQg-43" value="Retrieve Response Data" style="html=1;verticalAlign=bottom;endArrow=block;curved=0;rounded=0;" parent="1" edge="1">
          <mxGeometry width="80" relative="1" as="geometry">
            <mxPoint x="745" y="209" as="sourcePoint" />
            <mxPoint x="929.5" y="209" as="targetPoint" />
          </mxGeometry>
        </mxCell>
        <mxCell id="vJGRMZoa4p7dji69BdQg-44" value="Return User Responses against ID" style="html=1;verticalAlign=bottom;endArrow=open;dashed=1;endSize=8;curved=0;rounded=0;" parent="1" edge="1">
          <mxGeometry x="-0.0836" y="24" relative="1" as="geometry">
            <mxPoint x="925" y="226" as="sourcePoint" />
            <mxPoint x="739.5" y="226" as="targetPoint" />
            <mxPoint as="offset" />
          </mxGeometry>
        </mxCell>
      </root>
    </mxGraphModel>
  </diagram>
</mxfile>
